<svg viewBox="0 0 512 512" xmlns="http://www.w3.org/2000/svg"><path d="m344.496094 211-51.5625-90h-72.199219l-46.878906 90zm0 0"/><path d="m171.199219 241 84.492187 230.46875 97.023438-230.46875zm0 0"/><path d="m0 241 238.273438 271 .171874-.386719-99.503906-270.613281zm0 0"/><path d="m186.917969 121h-118.9375l-67.980469 90h140.039062zm0 0"/><path d="m379.085938 211h132.914062l-67.964844-90h-116.511718zm0 0"/><path d="m271.03125 510.21875.703125 1.78125 240.265625-271h-126.335938zm0 0"/><path d="m241 0h30v45h-30zm0 0"/><path d="m177.214844 35.101562 30 30-21.210938 21.210938-30-30zm0 0"/><path d="m336 35.097656 21.210938 21.210938-29.996094 30-21.210938-21.210938zm0 0"/></svg>